<svg xmlns="http://www.w3.org/2000/svg" viewBox="0 0 120 19.09"><defs><style>.cls-1{fill:#d74497;}.cls-2{fill:#221e1f;}</style></defs><title>loona_logo</title><g id="レイヤー_2" data-name="レイヤー 2"><g id="contents"><path class="cls-1" d="M119.91.09a.31.31,0,0,0-.22-.09.29.29,0,0,0-.22.09L101,18.55a.3.3,0,0,0,0,.44.29.29,0,0,0,.22.1.32.32,0,0,0,.22-.1L119.91.53a.31.31,0,0,0,0-.44"/><path class="cls-2" d="M26.47,0A9.54,9.54,0,1,0,36,9.55,9.53,9.53,0,0,0,26.47,0m0,18.44a8.91,8.91,0,1,1,8.9-8.91,8.92,8.92,0,0,1-8.9,8.91M47.55,0a9.53,9.53,0,1,0,9.53,9.52A9.54,9.54,0,0,0,47.55,0m0,18.42a8.9,8.9,0,1,1,8.91-8.9,8.91,8.91,0,0,1-8.91,8.9M99,18.61,89.82.18a.32.32,0,0,0-.56,0L80,18.61a.34.34,0,0,0,0,.31.33.33,0,0,0,.27.15H98.76a.32.32,0,0,0,.26-.15.34.34,0,0,0,0-.31m-18.21-.17L89.54,1l8.71,17.42Zm-62.08,0H.63V.33A.31.31,0,0,0,.31,0,.31.31,0,0,0,0,.33V18.76a.31.31,0,0,0,.31.31H18.75a.31.31,0,0,0,.31-.31.32.32,0,0,0-.31-.32M77.85,0H59.42a.31.31,0,0,0-.31.32V18.76a.31.31,0,0,0,.62,0V.64H77.54V18.76a.31.31,0,0,0,.62,0V.33A.31.31,0,0,0,77.85,0"/></g></g></svg>