<?xml version="1.0" encoding="UTF-8"?> <svg xmlns="http://www.w3.org/2000/svg" viewBox="0 0 250 75.64"><title>logo_3units-01</title><g id="レイヤー_2" data-name="レイヤー 2"><g id="contents"><path d="M143.22,61.81a24.22,24.22,0,0,0,4.91-1.48,17.33,17.33,0,0,0,3.79-2.16,11.47,11.47,0,0,0,2.53-2.61A11,11,0,0,0,157,58.17a18.4,18.4,0,0,0,3.86,2.16,24.72,24.72,0,0,0,4.92,1.48,29.54,29.54,0,0,0,5.8.54h.64v-5h-.64a21,21,0,0,1-6.2-.83,14.4,14.4,0,0,1-4.47-2.24A9.5,9.5,0,0,1,158.21,51a8.53,8.53,0,0,1-.91-3.83V31.62h-5.75V47.21a8.4,8.4,0,0,1-.91,3.83,9.5,9.5,0,0,1-2.73,3.22,14.4,14.4,0,0,1-4.47,2.24,21,21,0,0,1-6.2.83h-.63v5h.63a30.84,30.84,0,0,0,6-.54"></path><polygon points="157.28 70.36 157.28 62.4 151.57 62.4 151.57 70.36 136.21 70.36 136.21 75.37 172.64 75.37 172.64 70.36 157.28 70.36"></polygon><polygon points="209.73 31.62 209.73 40.14 204.71 40.14 204.71 45.15 209.73 45.15 209.73 51.87 204.71 51.87 204.71 56.89 209.73 56.89 209.73 64.21 184.7 64.21 184.7 31.62 179 31.62 179 69.23 209.73 69.23 209.73 75.37 215.43 75.37 215.43 31.62 209.73 31.62"></polygon><rect x="30.74" y="31.55" width="5.7" height="43.75"></rect><path d="M18.29,63.89a9.82,9.82,0,0,1-.57,3.69,5.27,5.27,0,0,1-1.47,2.12,5,5,0,0,1-2,1,11.19,11.19,0,0,1-2.31.25,10.94,10.94,0,0,1-2.19-.23,4.35,4.35,0,0,1-2-1,5.2,5.2,0,0,1-1.45-2.11,10,10,0,0,1-.57-3.74V43.05a10,10,0,0,1,.57-3.74,5,5,0,0,1,1.45-2.08,4.52,4.52,0,0,1,2-.94,10.92,10.92,0,0,1,2.19-.22,11.19,11.19,0,0,1,2.31.25,4.84,4.84,0,0,1,2,1,5.3,5.3,0,0,1,1.47,2.11,9.71,9.71,0,0,1,.57,3.64Zm3.36-28.26a9.81,9.81,0,0,0-3.71-3.1,13.56,13.56,0,0,0-6.09-1.18,14.11,14.11,0,0,0-6.22,1.16A8.78,8.78,0,0,0,2,35.58,11,11,0,0,0,.39,40,32.43,32.43,0,0,0,0,45V61.93A30,30,0,0,0,.42,67a11.36,11.36,0,0,0,1.67,4.38,9,9,0,0,0,3.59,3.09,13.67,13.67,0,0,0,6.17,1.18,13.42,13.42,0,0,0,6-1.18,9.83,9.83,0,0,0,3.72-3.09A11.62,11.62,0,0,0,23.47,67,24.2,24.2,0,0,0,24,61.93V45a26.13,26.13,0,0,0-.49-5,11.32,11.32,0,0,0-1.85-4.37"></path><path d="M94.26,42.21a7.13,7.13,0,0,1,.64-3.29,4.52,4.52,0,0,1,1.62-1.84,5.89,5.89,0,0,1,2.16-.81,14,14,0,0,1,2.27-.2,14.89,14.89,0,0,1,2.38.2,6.06,6.06,0,0,1,2.21.81,4.58,4.58,0,0,1,1.65,1.84,7.26,7.26,0,0,1,.64,3.29v9.54a7.35,7.35,0,0,1-.64,3.34,5,5,0,0,1-1.65,1.9,5.64,5.64,0,0,1-2.21.86,15.12,15.12,0,0,1-4.65,0,5.25,5.25,0,0,1-2.16-.81,4.67,4.67,0,0,1-1.62-1.89,7.52,7.52,0,0,1-.64-3.42ZM90.89,59a10.92,10.92,0,0,0,3.77,2.66,15,15,0,0,0,6.23,1.1A15.16,15.16,0,0,0,107,61.68a11.86,11.86,0,0,0,3.88-2.63,9.08,9.08,0,0,0,2-3.22,8.5,8.5,0,0,0,.59-2.8v-12a9,9,0,0,0-.56-2.77,9.21,9.21,0,0,0-2-3.2,12.05,12.05,0,0,0-3.88-2.65,15,15,0,0,0-6.18-1.11,15.47,15.47,0,0,0-6.28,1.08,10.6,10.6,0,0,0-3.76,2.63A8.37,8.37,0,0,0,89,38.26a10.65,10.65,0,0,0-.46,2.82V53a10.11,10.11,0,0,0,.49,2.8A8.58,8.58,0,0,0,90.89,59"></path><polygon points="119.29 31.35 119.29 70.09 88.56 70.09 88.56 75.11 119.29 75.11 124.99 75.11 124.99 70.09 124.99 31.35 119.29 31.35"></polygon><polygon points="67.18 47.23 48.9 47.23 48.9 36.56 67.18 36.56 67.18 31.55 43.19 31.55 43.19 52.24 67.18 52.24 67.18 47.23"></polygon><polygon points="79.67 39.39 79.67 31.57 73.97 31.57 73.97 52.22 79.67 52.22 79.67 44.4 84.69 44.4 84.69 39.39 79.67 39.39"></polygon><polygon points="43.19 60.18 73.97 60.18 73.97 62.75 43.19 62.75 43.19 75.35 79.67 75.35 79.67 70.38 48.9 70.38 48.9 67.77 79.67 67.77 79.67 55.17 43.19 55.17 43.19 60.18"></polygon><path d="M235,49.61a6.93,6.93,0,0,1,1.7-.9,5.94,5.94,0,0,1,2-.33,4.12,4.12,0,0,1,2.15.5,3.88,3.88,0,0,1,1.3,1.31,5.34,5.34,0,0,1,.63,1.84,14.17,14.17,0,0,1,.15,2.06,13.66,13.66,0,0,1-.34,3.37,5.39,5.39,0,0,1-1,2.07,3.22,3.22,0,0,1-1.46,1,5.75,5.75,0,0,1-1.83.28,6.26,6.26,0,0,1-2.83-.55A5.45,5.45,0,0,1,233.79,59a4.7,4.7,0,0,1-.86-1.52,6.82,6.82,0,0,1-.32-1.2l-.44.1a6.48,6.48,0,0,0,.57,1.78,5.53,5.53,0,0,0,1.13,1.58,5.42,5.42,0,0,0,1.83,1.14,7.64,7.64,0,0,0,2.69.42,7.87,7.87,0,0,0,3.11-.6,7.74,7.74,0,0,0,2.4-1.57,7.48,7.48,0,0,0,1.55-2.22,6,6,0,0,0,.55-2.49,5.63,5.63,0,0,0-.57-2.56,6.3,6.3,0,0,0-1.55-2,7.26,7.26,0,0,0-2.24-1.31A8.33,8.33,0,0,0,239,48V48a12,12,0,0,0,1.58-.44,10.21,10.21,0,0,0,2.07-1,7.31,7.31,0,0,0,1.8-1.58,3.51,3.51,0,0,0,.77-2.28,4.2,4.2,0,0,0-.35-1.59,4.65,4.65,0,0,0-1.07-1.55A5.77,5.77,0,0,0,242,38.37a7.56,7.56,0,0,0-5.43.05,5.41,5.41,0,0,0-1.78,1.24,4.45,4.45,0,0,0-.93,1.47,3.65,3.65,0,0,0-.27,1.15A1.21,1.21,0,0,0,235,43.64a1.88,1.88,0,0,0,.93-.22.83.83,0,0,0,.39-.79,1.55,1.55,0,0,0-.27-.79,2.59,2.59,0,0,1-.26-1.29,1.87,1.87,0,0,1,.61-1.31,3,3,0,0,1,1-.63,4.55,4.55,0,0,1,1.7-.27,3.57,3.57,0,0,1,1.57.3,2.57,2.57,0,0,1,1,.82,3.45,3.45,0,0,1,.54,1.2,6.59,6.59,0,0,1,.16,1.43,8.87,8.87,0,0,1-.21,2,4.77,4.77,0,0,1-.73,1.68A4.69,4.69,0,0,1,240,47.08a8.59,8.59,0,0,1-2.31,1l-1.09.3c-.3.09-.57.19-.79.27s-.41.17-.58.25l-.51.25Z"></path><path d="M234.93,23h9.73v-.45h-3.51V0h-.63a18.57,18.57,0,0,1-3.22,2.59c-1.14.72-2.4,1.46-3.79,2.24l.25.41,3.6-2.05a12.7,12.7,0,0,0,1.08-.69v20h-3.51Z"></path><rect x="228.16" y="29.78" width="21.84" height="0.97"></rect></g></g></svg> 