<?xml version="1.0" encoding="UTF-8"?> <svg xmlns="http://www.w3.org/2000/svg" viewBox="0 0 360 37.02"><defs><style>.cls-1{fill:#221e1f;}</style></defs><title>logo_3units-02</title><g id="レイヤー_2" data-name="レイヤー 2"><g id="contents"><path class="cls-1" d="M18.56,35.71a16.89,16.89,0,0,0,17.1-17.2A16.89,16.89,0,0,0,18.56,1.3,16.89,16.89,0,0,0,1.45,18.51a16.89,16.89,0,0,0,17.11,17.2M18.56,0A18.22,18.22,0,0,1,37.11,18.51,18.22,18.22,0,0,1,18.56,37,18.22,18.22,0,0,1,0,18.51,18.22,18.22,0,0,1,18.56,0"></path><polygon class="cls-1" points="121.32 0.63 121.32 1.93 103.15 1.93 103.15 17.73 121.32 17.73 121.32 19.04 103.15 19.04 103.15 35.09 121.32 35.09 121.32 36.39 101.69 36.39 101.69 0.63 121.32 0.63"></polygon><polygon class="cls-1" points="140.28 22.42 151.3 0.63 152.94 0.63 141 24.07 141 36.39 139.55 36.39 139.55 24.07 127.61 0.63 129.21 0.63 140.28 22.42"></polygon><polygon class="cls-1" points="179.18 0.63 179.18 1.93 161.01 1.93 161.01 17.73 179.18 17.73 179.18 19.04 161.01 19.04 161.01 35.09 179.18 35.09 179.18 36.39 159.55 36.39 159.55 0.63 179.18 0.63"></polygon><path class="cls-1" d="M228.59,28.61a18.6,18.6,0,0,1-34.16-10.1A18.22,18.22,0,0,1,213,0a18.84,18.84,0,0,1,15.65,8.61H227a17.65,17.65,0,0,0-14-7.3,16.89,16.89,0,0,0-17.11,17.2A16.89,16.89,0,0,0,213,35.71a17.42,17.42,0,0,0,14-7.1Z"></path><rect class="cls-1" x="236.21" y="0.63" width="1.45" height="35.76"></rect><path class="cls-1" d="M255.52.63c5.55,0,7.78.48,9.52,1.5,2.9,1.45,5.17,5.36,5.17,9.52.19,4.44-2.76,11.16-10.54,11.21l-1.4,0,9.62,13.49h-1.84L255.57,21.6h2.22c3.38,0,5.56-.29,7.92-2.27a10.3,10.3,0,0,0,3.05-7.63,10.11,10.11,0,0,0-4.26-8.32c-2.17-1.4-4.78-1.45-9-1.45H248.8V36.39h-1.45V.63Z"></path><path class="cls-1" d="M309.88,28.61a18.6,18.6,0,0,1-34.16-10.1A18.21,18.21,0,0,1,294.27,0a18.86,18.86,0,0,1,15.66,8.61h-1.7a17.63,17.63,0,0,0-14-7.3,16.89,16.89,0,0,0-17.11,17.2,16.89,16.89,0,0,0,17.11,17.2,17.42,17.42,0,0,0,14-7.1Z"></path><polygon class="cls-1" points="318.96 35.08 334.09 35.08 334.09 36.39 317.51 36.39 317.51 0.63 318.96 0.63 318.96 35.08"></polygon><polygon class="cls-1" points="360 35.08 341.83 35.08 341.83 19.04 360 19.04 360 17.74 341.83 17.74 341.83 1.94 360 1.94 360 0.63 340.38 0.63 340.38 36.39 360 36.39 360 35.08"></polygon><path class="cls-1" d="M43.38.63H37.31v1.3h6.07C53.86,1.93,60,8.17,60,18.6S53.72,35.09,43.38,35.09H37.31v1.3h6.07c11.26,0,18-6.62,18-17.88S54.64.63,43.38.63"></path><path class="cls-1" d="M67.55.63H61.48v1.3h6.07C78,1.93,84.13,8.17,84.13,18.6S77.89,35.09,67.55,35.09H61.48v1.3h6.07c11.26,0,18-6.62,18-17.88S78.81.63,67.55.63"></path></g></g></svg> 