<?xml version="1.0" encoding="UTF-8"?> <svg xmlns="http://www.w3.org/2000/svg" viewBox="0 0 200 32.84"><defs><style>.cls-1{fill:#221e1f;}</style></defs><g id="レイヤー_2" data-name="レイヤー 2"><g id="contents"><path class="cls-1" d="M106.2,22.58a17.91,17.91,0,0,0,3.64-1.09,13.17,13.17,0,0,0,2.81-1.6A8.77,8.77,0,0,0,114.53,18a8.31,8.31,0,0,0,1.91,1.94,13.85,13.85,0,0,0,2.86,1.6A18.4,18.4,0,0,0,123,22.58a21.67,21.67,0,0,0,4.3.4h.47V19.27h-.47a15.4,15.4,0,0,1-4.59-.62A10.75,10.75,0,0,1,119.34,17a6.88,6.88,0,0,1-2-2.39,6.28,6.28,0,0,1-.68-2.84V.2h-4.26V11.76a6.28,6.28,0,0,1-.68,2.84,7,7,0,0,1-2,2.39,10.86,10.86,0,0,1-3.32,1.66,15.4,15.4,0,0,1-4.59.62h-.47V23h.47a22.66,22.66,0,0,0,4.43-.4"></path><polygon class="cls-1" points="112.39 23.02 112.39 28.92 101 28.92 101 32.64 128.01 32.64 128.01 28.92 116.62 28.92 116.62 23.02 112.39 23.02"></polygon><polygon class="cls-1" points="155.51 0.2 155.51 6.52 151.79 6.52 151.79 10.23 155.51 10.23 155.51 15.22 151.79 15.22 151.79 18.93 155.51 18.93 155.51 24.37 136.96 24.37 136.96 0.2 132.73 0.2 132.73 28.09 155.51 28.09 155.51 32.64 159.74 32.64 159.74 0.2 155.51 0.2"></polygon><rect class="cls-1" x="22.79" y="0.15" width="4.23" height="32.44"></rect><path class="cls-1" d="M13.56,24.13a7.31,7.31,0,0,1-.42,2.73,3.76,3.76,0,0,1-1.09,1.57,3.52,3.52,0,0,1-1.52.73,8.07,8.07,0,0,1-1.71.18,8.24,8.24,0,0,1-1.62-.16,3.34,3.34,0,0,1-1.48-.71A4.07,4.07,0,0,1,4.65,26.9a7.43,7.43,0,0,1-.42-2.77V8.68a7.43,7.43,0,0,1,.42-2.77A3.84,3.84,0,0,1,5.72,4.36a3.32,3.32,0,0,1,1.48-.7A8.24,8.24,0,0,1,8.82,3.5a8.07,8.07,0,0,1,1.71.18,3.64,3.64,0,0,1,1.52.73A3.89,3.89,0,0,1,13.14,6a7.21,7.21,0,0,1,.42,2.7Zm2.5-21A7.25,7.25,0,0,0,13.31.88,10.05,10.05,0,0,0,8.79,0,10.55,10.55,0,0,0,4.17.86,6.63,6.63,0,0,0,1.51,3.13,8.32,8.32,0,0,0,.29,6.38,24.24,24.24,0,0,0,0,10.13V22.67a22.1,22.1,0,0,0,.31,3.76,8.52,8.52,0,0,0,1.24,3.24A6.69,6.69,0,0,0,4.21,32a10.24,10.24,0,0,0,4.58.87A10.07,10.07,0,0,0,13.27,32,7.19,7.19,0,0,0,16,29.67a8.73,8.73,0,0,0,1.39-3.24,18.66,18.66,0,0,0,.38-3.76V10.13a18.31,18.31,0,0,0-.37-3.71,8.35,8.35,0,0,0-1.36-3.25"></path><path class="cls-1" d="M69.9,8.06a5.32,5.32,0,0,1,.47-2.45,3.42,3.42,0,0,1,1.2-1.36,4.13,4.13,0,0,1,1.61-.6,9.86,9.86,0,0,1,1.67-.15,10.66,10.66,0,0,1,1.77.15,4.32,4.32,0,0,1,1.64.6,3.31,3.31,0,0,1,1.22,1.36A5.31,5.31,0,0,1,80,8.06v7.07a5.39,5.39,0,0,1-.48,2.48A3.64,3.64,0,0,1,78.26,19a4.23,4.23,0,0,1-1.64.64,10.64,10.64,0,0,1-1.77.14,12.27,12.27,0,0,1-1.67-.12,4,4,0,0,1-1.61-.61,3.48,3.48,0,0,1-1.2-1.4,5.57,5.57,0,0,1-.47-2.53ZM67.4,20.5a8,8,0,0,0,2.79,2,11.1,11.1,0,0,0,4.63.82,11.07,11.07,0,0,0,4.53-.8,8.63,8.63,0,0,0,2.89-1.95,6.85,6.85,0,0,0,1.51-2.39,6.46,6.46,0,0,0,.43-2.07V7.22a6.77,6.77,0,0,0-.41-2.06,6.69,6.69,0,0,0-1.5-2.37,9,9,0,0,0-2.88-2A11,11,0,0,0,74.82,0a11.6,11.6,0,0,0-4.67.8,8.13,8.13,0,0,0-2.79,2A6.23,6.23,0,0,0,66,5.12a7.9,7.9,0,0,0-.34,2.1V16A7.74,7.74,0,0,0,66,18.12,6.31,6.31,0,0,0,67.4,20.5"></path><polygon class="cls-1" points="88.45 0 88.45 28.72 65.67 28.72 65.67 32.44 88.45 32.44 92.68 32.44 92.68 28.72 92.68 0 88.45 0"></polygon><polygon class="cls-1" points="32.03 0.15 32.03 15.49 49.82 15.49 49.82 11.77 36.26 11.77 36.26 3.87 49.82 3.87 49.82 0.15 32.03 0.15"></polygon><polygon class="cls-1" points="54.85 0.17 54.85 15.47 59.08 15.47 59.08 9.68 62.8 9.68 62.8 5.96 59.08 5.96 59.08 0.17 54.85 0.17"></polygon><polygon class="cls-1" points="32.03 17.66 32.03 21.38 54.85 21.38 54.85 23.28 32.03 23.28 32.03 32.63 59.08 32.63 59.08 28.94 36.26 28.94 36.26 27 59.08 27 59.08 17.66 32.03 17.66"></polygon><path class="cls-1" d="M165,12.9a.87.87,0,0,1,.91-.77,3.34,3.34,0,0,1,.91.22.48.48,0,0,0,.42-.12,25.3,25.3,0,0,0,1.58-3.38c-.1-.5-2.2-6.69-2.36-7.11s-.41-.83-.93-.83H165c-.14,0-.16-.06-.16-.18V.34c0-.08,0-.14.16-.14s.65.06,1.82.06c1,0,1.62-.06,1.84-.06s.18.06.18.14V.75c0,.1,0,.16-.12.16h-.38c-.22,0-.29.14-.25.44s1.4,4.81,1.62,5.24h.08c.19-.32,1.92-4.43,2-4.93s0-.75-.33-.75h-.32c-.12,0-.14-.06-.14-.16V.36c0-.1,0-.16.12-.16.26,0,.67.06,1.62.06.54,0,1-.06,1.21-.06s.12.08.12.16V.73c0,.12,0,.18-.1.18h-.32a.89.89,0,0,0-.69.36,68.22,68.22,0,0,0-3.1,6.67c-1,2.19-1.74,4-2.1,4.68s-.63,1.29-1.68,1.29C165.33,13.91,165,13.5,165,12.9Z"></path><path class="cls-1" d="M173.58,12.9a.87.87,0,0,1,.91-.77,3.45,3.45,0,0,1,.91.22.45.45,0,0,0,.41-.12,24.05,24.05,0,0,0,1.59-3.38c-.1-.5-2.2-6.69-2.36-7.11s-.41-.83-.93-.83h-.51c-.14,0-.16-.06-.16-.18V.34c0-.08,0-.14.16-.14s.65.06,1.82.06c1,0,1.62-.06,1.84-.06s.18.06.18.14V.75c0,.1,0,.16-.12.16h-.38c-.22,0-.29.14-.25.44s1.4,4.81,1.62,5.24h.08c.19-.32,1.92-4.43,2-4.93s0-.75-.33-.75h-.32c-.12,0-.14-.06-.14-.16V.36c0-.1,0-.16.12-.16.26,0,.67.06,1.62.06.54,0,1-.06,1.21-.06s.12.08.12.16V.73c0,.12,0,.18-.1.18h-.32a.89.89,0,0,0-.69.36,69.91,69.91,0,0,0-3.11,6.67c-1,2.19-1.74,4-2.09,4.68s-.63,1.29-1.68,1.29C174,13.91,173.58,13.5,173.58,12.9Z"></path><path class="cls-1" d="M185.24,8.43c0,.08,0,.16-.14.16s-.69-.06-1.54-.06-1.33.06-1.53.06-.18-.08-.18-.18V8.05c0-.09,0-.17.16-.17h.52a1,1,0,0,0,.81-.24c.37-.34,2.21-2.79,2.55-3.17a37,37,0,0,0-2.33-3.28.91.91,0,0,0-.72-.28h-.55a.12.12,0,0,1-.14-.14V.38c0-.14,0-.18.16-.18s.69.06,1.62.06S185.59.2,185.77.2s.12.06.12.18V.75c0,.12,0,.16-.12.16h-.18c-.31,0-.31.32-.08.67l1.23,1.94,1.5-2c.18-.24.12-.64-.21-.64h-.24c-.1,0-.12-.06-.12-.14V.36c0-.12,0-.16.1-.16.24,0,.57.06,1.7.06A10.1,10.1,0,0,0,190.6.2c.16,0,.18.08.18.2V.75c0,.12,0,.16-.16.16h-.32a1.09,1.09,0,0,0-.77.24c-.34.28-2,2.36-2.43,2.87.79,1.17,1.58,2.39,2.45,3.44a1.08,1.08,0,0,0,.87.42h.32c.08,0,.1,0,.1.15v.4c0,.08,0,.16-.14.16s-.56-.06-1.53-.06-1.72.06-1.93.06-.16-.08-.16-.18V8.08c0-.14,0-.2.16-.2h.29c.22,0,.34-.3.12-.64L186.23,5c-.28.39-1.59,2.15-1.73,2.47s0,.44.22.44h.42c.08,0,.1.08.1.15Z"></path><path class="cls-1" d="M190.88,12.9a.88.88,0,0,1,.91-.77,3.34,3.34,0,0,1,.91.22.45.45,0,0,0,.41-.12,24.05,24.05,0,0,0,1.59-3.38c-.1-.5-2.2-6.69-2.36-7.11s-.41-.83-.93-.83h-.51c-.14,0-.16-.06-.16-.18V.34c0-.08,0-.14.16-.14s.65.06,1.82.06c1,0,1.62-.06,1.84-.06s.18.06.18.14V.75c0,.1,0,.16-.12.16h-.38c-.21,0-.29.14-.25.44s1.4,4.81,1.62,5.24h.08c.2-.32,1.92-4.43,2-4.93s0-.75-.34-.75h-.32c-.12,0-.14-.06-.14-.16V.36c0-.1,0-.16.12-.16.26,0,.68.06,1.63.06.53,0,1-.06,1.2-.06s.12.08.12.16V.73c0,.12,0,.18-.1.18h-.32a.89.89,0,0,0-.69.36,68.22,68.22,0,0,0-3.1,6.67c-1,2.19-1.74,4-2.1,4.68s-.63,1.29-1.68,1.29C191.26,13.91,190.88,13.5,190.88,12.9Z"></path></g></g></svg> 